<?xml version="1.0" encoding="UTF-8"?><svg id="uuid-79aa42a2-7f18-4e3e-a257-effd3fb88fb6" xmlns="http://www.w3.org/2000/svg" viewBox="0 0 359.6 304.56"><path d="M283.71,264.42c.05,1.2-.16,2.2-.81,3.06-.63.83-1.34,1.21-2.45,1.68-1.43.58-2.82.79-4.36.93-1.55.16-3.1.19-4.89.19-2.34,0-4.69-.36-7.58-.83-2.98-.5-5.53-1.17-8.76-2.31v10.98c1.99.88,4.68,1.84,7.63,2.67,3.06.86,6.45,1.57,10.19,1.63,4.27.08,7.27-.3,10.44-1.08,3.16-.77,5.82-1.94,8.08-3.55,2.21-1.59,3.94-3.58,5.15-5.99,1.21-2.39,1.78-5.2,1.69-8.43-.06-2.94-.63-5.38-1.72-7.29-1.1-1.92-2.48-3.45-4.15-4.66-1.65-1.19-3.52-2.14-5.57-2.83-2.07-.64-4.13-1.23-6.19-1.69-1.32-.31-2.66-.64-4.05-.96-1.39-.34-2.73-.76-4.02-1.26-1.27-.52-2.29-1.19-3.02-2.02-.75-.82-1.12-1.89-1.14-3.18-.03-.74.11-1.47.41-2.17.32-.68.86-1.3,1.56-1.82.7-.51,1.75-.9,2.84-1.11,1.21-.22,2.72-.22,4.35-.11,1.35.08,2.83.17,4.35.36,1.52.17,3.09.37,4.63.64,1.55.28,2.96.55,4.48.91,1.49.38,2.77.8,4.16,1.22v-12.26c-2.59-.9-5.63-1.63-8.86-2.21-3.2-.58-6.61-.86-10.25-.86-2.99,0-5.8.37-8.48,1.11-2.65.75-5.14,2.08-7.13,3.61-1.99,1.54-3.38,3.63-4.51,5.96-1.14,2.35-1.66,5.1-1.57,8.3.05,2.59.54,4.78,1.48,6.58.91,1.8,2.14,3.28,3.65,4.47,1.53,1.19,3.29,2.13,5.25,2.86,2,.72,4.02,1.36,6.17,1.91,1.7.39,3.3.79,4.86,1.18,1.52.41,2.91.86,4.09,1.38,1.2.55,2.17,1.21,2.91,1.99.74.77,1.11,1.78,1.13,3h0ZM124.05,243.31h-30.65v14.94h30.65v-14.94h0ZM209.35,246.17c.64-6.73,4.38-10.8,11.9-10.8s11.7,4.83,12.16,10.8h-24.06ZM192.94,252.09c0,19.52,11.72,30.28,32.02,30.28,8.92,0,15.62-2.34,20.78-4.85v-10.44c-4.06,1.21-11.24,3.12-20.19,3.12-10.42,0-15.75-4.4-16.51-12.5h38.56c.18-1.25.3-4.23.3-6.4,0-16.08-9.82-29.22-26.68-29.22s-28.3,11.72-28.3,30h0ZM344.43,276.1c-3.28,3.75-7.97,6.41-15.49,6.41-10.28,0-26.75-6.75-26.75-28.93,0-18.14,13.44-31.45,32.71-31.45,9.53,0,19.23,2.35,24.7,4.54v54.42h-14.06l-1.11-4.99h0ZM343.65,236.85c-1.71-.48-5.15-1.12-9.07-1.12-7.67,0-15.66,5.95-15.66,17.22,0,11.98,7.04,16.45,13.34,16.45,5.28,0,9.52-2.84,11.39-5.95v-26.6h0ZM154.46,235.44c-3.12,0-6.25.14-8.45.63v30.64c2.51,1.41,6.4,2.69,11.27,2.69,8.6,0,13.46-7.37,13.46-16.76,0-12.87-8.59-17.2-16.28-17.2h0ZM154.75,222.13c11.93,0,32.72,4.19,32.72,30.51,0,16.9-11.57,29.88-28.94,29.88-5,0-9.86-1.1-12.52-2.19v24.24h-15.79v-79.92c6.89-1.41,14.84-2.52,24.53-2.52h0ZM70.77,281.9v-32.79c0-8.71-4.44-13.16-13.34-13.16-3.69,0-7.16,1.91-7.41,2.06-.16.08.88,2.29.88,5.51v38.38h-15.6v-32.79c0-8.71-4.44-13.16-13.33-13.16-4.44,0-5.95,1.44-5.95,1.44v44.51H0v-53.7c7.48-4.6,22.53-10.13,42.47-1.68,3.22-1.93,8.79-3.74,15.12-3.74,18.58,0,29.35,9.2,29.35,24.59v34.53h-16.17Z" style="fill:#ec1c24;"/><path d="M93.68,94.7c30.1,4.78,52.03-28.25,52.03-28.25,21.91,34.23,36.82,7.09,36.82,7.09,0,0-15.87,26.96-68.38,26.12l-20.47-4.95h0Z" style="fill:#53622c;"/><path d="M200.41,38.11s-31.78,76.57-102.76,57.3c0,0,118.63,36.55,162.15-28.71l-59.39-28.6h0Z" style="fill:#5ea645;"/><path d="M170.43,150.88c-1.04,0-1.89.83-1.89,1.87v11.83c0,1.03.85,1.88,1.89,1.88h11.82c1.04,0,1.86-.85,1.86-1.88v-11.83c0-1.04-.83-1.87-1.86-1.87h-11.82ZM194.26,162.04c0,.55.47,1.02,1.05,1.02h6.54c.58,0,1.02-.47,1.02-1.02v-6.54c0-.58-.45-1.05-1.02-1.05h-6.54c-.57,0-1.05.47-1.05,1.05v6.54h0ZM150.11,162.04c0,.55.47,1.02,1.05,1.02h6.53c.57,0,1.03-.47,1.03-1.02v-6.54c0-.58-.46-1.05-1.03-1.05h-6.53c-.58,0-1.05.47-1.05,1.05v6.54h0ZM223.68,101.57v62.65c0,9.42-7.66,17.08-17.08,17.08h-61.11c-9.43,0-17.07-7.66-17.07-17.08V17.06c0-9.4,7.64-17.06,17.07-17.06h61.11c9.42,0,17.08,7.66,17.08,17.06v26.17l-11.37-5.4V15.1h-72.51v125.92h72.51v-35.31c4.35-1.28,8.24-2.78,11.37-4.14h0Z" style="fill:#ec1c24;"/></svg>